<mxfile host="app.diagrams.net" agent="Mozilla/5.0 (Macintosh; Intel Mac OS X 10_15_7) AppleWebKit/605.1.15 (KHTML, like Gecko) Version/18.6 Safari/605.1.15" version="28.1.2">
  <diagram id="C5RBs43oDa-KdzZeNtuy" name="Page-1">
    <mxGraphModel dx="1507" dy="1063" grid="1" gridSize="10" guides="1" tooltips="1" connect="1" arrows="1" fold="1" page="0" pageScale="1" pageWidth="827" pageHeight="1169" background="none" math="0" shadow="0">
      <root>
        <mxCell id="WIyWlLk6GJQsqaUBKTNV-0" />
        <mxCell id="WIyWlLk6GJQsqaUBKTNV-1" parent="WIyWlLk6GJQsqaUBKTNV-0" />
        <mxCell id="ZBmbEBPX8aPCuh-xm3aD-1" value="" style="ellipse;whiteSpace=wrap;html=1;aspect=fixed;fillColor=#000000;" vertex="1" parent="WIyWlLk6GJQsqaUBKTNV-1">
          <mxGeometry x="240" y="160" width="40" height="40" as="geometry" />
        </mxCell>
        <mxCell id="ZBmbEBPX8aPCuh-xm3aD-12" style="edgeStyle=orthogonalEdgeStyle;rounded=0;orthogonalLoop=1;jettySize=auto;html=1;exitX=0.5;exitY=1;exitDx=0;exitDy=0;entryX=0.5;entryY=0;entryDx=0;entryDy=0;" edge="1" parent="WIyWlLk6GJQsqaUBKTNV-1" source="ZBmbEBPX8aPCuh-xm3aD-3" target="ZBmbEBPX8aPCuh-xm3aD-9">
          <mxGeometry relative="1" as="geometry" />
        </mxCell>
        <mxCell id="ZBmbEBPX8aPCuh-xm3aD-3" value="Registration Page" style="rounded=1;whiteSpace=wrap;html=1;" vertex="1" parent="WIyWlLk6GJQsqaUBKTNV-1">
          <mxGeometry x="200" y="220" width="120" height="60" as="geometry" />
        </mxCell>
        <mxCell id="ZBmbEBPX8aPCuh-xm3aD-4" value="" style="endArrow=classic;html=1;rounded=0;entryX=0.5;entryY=0;entryDx=0;entryDy=0;exitX=0.5;exitY=1;exitDx=0;exitDy=0;" edge="1" parent="WIyWlLk6GJQsqaUBKTNV-1" source="ZBmbEBPX8aPCuh-xm3aD-1" target="ZBmbEBPX8aPCuh-xm3aD-3">
          <mxGeometry width="50" height="50" relative="1" as="geometry">
            <mxPoint x="250" y="510" as="sourcePoint" />
            <mxPoint x="300" y="460" as="targetPoint" />
          </mxGeometry>
        </mxCell>
        <mxCell id="ZBmbEBPX8aPCuh-xm3aD-5" value="Enter email" style="rounded=1;whiteSpace=wrap;html=1;" vertex="1" parent="WIyWlLk6GJQsqaUBKTNV-1">
          <mxGeometry y="440" width="170" height="60" as="geometry" />
        </mxCell>
        <mxCell id="ZBmbEBPX8aPCuh-xm3aD-15" style="edgeStyle=orthogonalEdgeStyle;rounded=0;orthogonalLoop=1;jettySize=auto;html=1;exitX=0;exitY=0.5;exitDx=0;exitDy=0;entryX=0;entryY=0.5;entryDx=0;entryDy=0;" edge="1" parent="WIyWlLk6GJQsqaUBKTNV-1" source="ZBmbEBPX8aPCuh-xm3aD-6" target="ZBmbEBPX8aPCuh-xm3aD-5">
          <mxGeometry relative="1" as="geometry">
            <mxPoint x="-80" y="470" as="targetPoint" />
          </mxGeometry>
        </mxCell>
        <mxCell id="ZBmbEBPX8aPCuh-xm3aD-16" value="No" style="edgeLabel;html=1;align=center;verticalAlign=middle;resizable=0;points=[];" vertex="1" connectable="0" parent="ZBmbEBPX8aPCuh-xm3aD-15">
          <mxGeometry x="0.1556" relative="1" as="geometry">
            <mxPoint as="offset" />
          </mxGeometry>
        </mxCell>
        <mxCell id="ZBmbEBPX8aPCuh-xm3aD-29" style="edgeStyle=orthogonalEdgeStyle;rounded=0;orthogonalLoop=1;jettySize=auto;html=1;exitX=0.5;exitY=1;exitDx=0;exitDy=0;entryX=0.5;entryY=0;entryDx=0;entryDy=0;" edge="1" parent="WIyWlLk6GJQsqaUBKTNV-1" source="ZBmbEBPX8aPCuh-xm3aD-6" target="ZBmbEBPX8aPCuh-xm3aD-19">
          <mxGeometry relative="1" as="geometry" />
        </mxCell>
        <mxCell id="ZBmbEBPX8aPCuh-xm3aD-38" value="Yes" style="edgeLabel;html=1;align=center;verticalAlign=middle;resizable=0;points=[];" vertex="1" connectable="0" parent="ZBmbEBPX8aPCuh-xm3aD-29">
          <mxGeometry x="-0.28" y="1" relative="1" as="geometry">
            <mxPoint as="offset" />
          </mxGeometry>
        </mxCell>
        <mxCell id="ZBmbEBPX8aPCuh-xm3aD-6" value="is this valid email" style="rhombus;whiteSpace=wrap;html=1;" vertex="1" parent="WIyWlLk6GJQsqaUBKTNV-1">
          <mxGeometry x="25" y="540" width="120" height="110" as="geometry" />
        </mxCell>
        <mxCell id="ZBmbEBPX8aPCuh-xm3aD-7" value="" style="endArrow=classic;html=1;rounded=0;entryX=0.5;entryY=0;entryDx=0;entryDy=0;exitX=0.5;exitY=1;exitDx=0;exitDy=0;" edge="1" parent="WIyWlLk6GJQsqaUBKTNV-1" source="ZBmbEBPX8aPCuh-xm3aD-5" target="ZBmbEBPX8aPCuh-xm3aD-6">
          <mxGeometry width="50" height="50" relative="1" as="geometry">
            <mxPoint x="165" y="300" as="sourcePoint" />
            <mxPoint x="165" y="360" as="targetPoint" />
          </mxGeometry>
        </mxCell>
        <mxCell id="ZBmbEBPX8aPCuh-xm3aD-22" style="edgeStyle=orthogonalEdgeStyle;rounded=0;orthogonalLoop=1;jettySize=auto;html=1;exitX=0.5;exitY=1;exitDx=0;exitDy=0;entryX=0.5;entryY=0;entryDx=0;entryDy=0;" edge="1" parent="WIyWlLk6GJQsqaUBKTNV-1" source="ZBmbEBPX8aPCuh-xm3aD-8" target="ZBmbEBPX8aPCuh-xm3aD-21">
          <mxGeometry relative="1" as="geometry" />
        </mxCell>
        <mxCell id="ZBmbEBPX8aPCuh-xm3aD-8" value="Enter authorized email/ code" style="rounded=1;whiteSpace=wrap;html=1;" vertex="1" parent="WIyWlLk6GJQsqaUBKTNV-1">
          <mxGeometry x="370" y="440" width="120" height="60" as="geometry" />
        </mxCell>
        <mxCell id="ZBmbEBPX8aPCuh-xm3aD-10" style="edgeStyle=orthogonalEdgeStyle;rounded=0;orthogonalLoop=1;jettySize=auto;html=1;exitX=0;exitY=0.5;exitDx=0;exitDy=0;entryX=0.5;entryY=0;entryDx=0;entryDy=0;" edge="1" parent="WIyWlLk6GJQsqaUBKTNV-1" source="ZBmbEBPX8aPCuh-xm3aD-9" target="ZBmbEBPX8aPCuh-xm3aD-5">
          <mxGeometry relative="1" as="geometry">
            <mxPoint x="50" y="340" as="targetPoint" />
          </mxGeometry>
        </mxCell>
        <mxCell id="ZBmbEBPX8aPCuh-xm3aD-14" value="No" style="edgeLabel;html=1;align=center;verticalAlign=middle;resizable=0;points=[];" vertex="1" connectable="0" parent="ZBmbEBPX8aPCuh-xm3aD-10">
          <mxGeometry x="-0.2851" y="-1" relative="1" as="geometry">
            <mxPoint as="offset" />
          </mxGeometry>
        </mxCell>
        <mxCell id="ZBmbEBPX8aPCuh-xm3aD-11" style="edgeStyle=orthogonalEdgeStyle;rounded=0;orthogonalLoop=1;jettySize=auto;html=1;exitX=1;exitY=0.5;exitDx=0;exitDy=0;entryX=0.5;entryY=0;entryDx=0;entryDy=0;" edge="1" parent="WIyWlLk6GJQsqaUBKTNV-1" source="ZBmbEBPX8aPCuh-xm3aD-9" target="ZBmbEBPX8aPCuh-xm3aD-8">
          <mxGeometry relative="1" as="geometry">
            <mxPoint x="410" y="340" as="targetPoint" />
          </mxGeometry>
        </mxCell>
        <mxCell id="ZBmbEBPX8aPCuh-xm3aD-13" value="Yes" style="edgeLabel;html=1;align=center;verticalAlign=middle;resizable=0;points=[];" vertex="1" connectable="0" parent="ZBmbEBPX8aPCuh-xm3aD-11">
          <mxGeometry x="-0.4571" y="4" relative="1" as="geometry">
            <mxPoint as="offset" />
          </mxGeometry>
        </mxCell>
        <mxCell id="ZBmbEBPX8aPCuh-xm3aD-9" value="Is this authorized internal users&amp;nbsp;" style="rhombus;whiteSpace=wrap;html=1;" vertex="1" parent="WIyWlLk6GJQsqaUBKTNV-1">
          <mxGeometry x="200" y="300" width="120" height="120" as="geometry" />
        </mxCell>
        <mxCell id="ZBmbEBPX8aPCuh-xm3aD-31" style="edgeStyle=orthogonalEdgeStyle;rounded=0;orthogonalLoop=1;jettySize=auto;html=1;exitX=0.5;exitY=1;exitDx=0;exitDy=0;entryX=0.5;entryY=0;entryDx=0;entryDy=0;" edge="1" parent="WIyWlLk6GJQsqaUBKTNV-1" source="ZBmbEBPX8aPCuh-xm3aD-19" target="ZBmbEBPX8aPCuh-xm3aD-26">
          <mxGeometry relative="1" as="geometry" />
        </mxCell>
        <mxCell id="ZBmbEBPX8aPCuh-xm3aD-19" value="Send Verification" style="rounded=1;whiteSpace=wrap;html=1;" vertex="1" parent="WIyWlLk6GJQsqaUBKTNV-1">
          <mxGeometry x="25" y="710" width="120" height="60" as="geometry" />
        </mxCell>
        <mxCell id="ZBmbEBPX8aPCuh-xm3aD-24" style="edgeStyle=orthogonalEdgeStyle;rounded=0;orthogonalLoop=1;jettySize=auto;html=1;exitX=1;exitY=0.5;exitDx=0;exitDy=0;entryX=1;entryY=0.5;entryDx=0;entryDy=0;" edge="1" parent="WIyWlLk6GJQsqaUBKTNV-1" source="ZBmbEBPX8aPCuh-xm3aD-21" target="ZBmbEBPX8aPCuh-xm3aD-8">
          <mxGeometry relative="1" as="geometry" />
        </mxCell>
        <mxCell id="ZBmbEBPX8aPCuh-xm3aD-25" value="No" style="edgeLabel;html=1;align=center;verticalAlign=middle;resizable=0;points=[];" vertex="1" connectable="0" parent="ZBmbEBPX8aPCuh-xm3aD-24">
          <mxGeometry x="0.0323" relative="1" as="geometry">
            <mxPoint as="offset" />
          </mxGeometry>
        </mxCell>
        <mxCell id="ZBmbEBPX8aPCuh-xm3aD-44" style="edgeStyle=orthogonalEdgeStyle;rounded=0;orthogonalLoop=1;jettySize=auto;html=1;exitX=0.5;exitY=1;exitDx=0;exitDy=0;entryX=0.5;entryY=0;entryDx=0;entryDy=0;" edge="1" parent="WIyWlLk6GJQsqaUBKTNV-1" source="ZBmbEBPX8aPCuh-xm3aD-21" target="ZBmbEBPX8aPCuh-xm3aD-43">
          <mxGeometry relative="1" as="geometry" />
        </mxCell>
        <mxCell id="ZBmbEBPX8aPCuh-xm3aD-46" value="Yes" style="edgeLabel;html=1;align=center;verticalAlign=middle;resizable=0;points=[];" vertex="1" connectable="0" parent="ZBmbEBPX8aPCuh-xm3aD-44">
          <mxGeometry x="-0.1" y="2" relative="1" as="geometry">
            <mxPoint as="offset" />
          </mxGeometry>
        </mxCell>
        <mxCell id="ZBmbEBPX8aPCuh-xm3aD-21" value="is this valid email/code" style="rhombus;whiteSpace=wrap;html=1;" vertex="1" parent="WIyWlLk6GJQsqaUBKTNV-1">
          <mxGeometry x="370" y="540" width="120" height="110" as="geometry" />
        </mxCell>
        <mxCell id="ZBmbEBPX8aPCuh-xm3aD-28" style="edgeStyle=orthogonalEdgeStyle;rounded=0;orthogonalLoop=1;jettySize=auto;html=1;exitX=0.5;exitY=1;exitDx=0;exitDy=0;entryX=0.5;entryY=0;entryDx=0;entryDy=0;" edge="1" parent="WIyWlLk6GJQsqaUBKTNV-1" source="ZBmbEBPX8aPCuh-xm3aD-26" target="ZBmbEBPX8aPCuh-xm3aD-27">
          <mxGeometry relative="1" as="geometry" />
        </mxCell>
        <mxCell id="ZBmbEBPX8aPCuh-xm3aD-26" value="Enter information/password" style="rounded=1;whiteSpace=wrap;html=1;" vertex="1" parent="WIyWlLk6GJQsqaUBKTNV-1">
          <mxGeometry x="22.5" y="820" width="125" height="70" as="geometry" />
        </mxCell>
        <mxCell id="ZBmbEBPX8aPCuh-xm3aD-33" style="edgeStyle=orthogonalEdgeStyle;rounded=0;orthogonalLoop=1;jettySize=auto;html=1;exitX=1;exitY=0.5;exitDx=0;exitDy=0;entryX=1;entryY=0.5;entryDx=0;entryDy=0;" edge="1" parent="WIyWlLk6GJQsqaUBKTNV-1" source="ZBmbEBPX8aPCuh-xm3aD-27" target="ZBmbEBPX8aPCuh-xm3aD-26">
          <mxGeometry relative="1" as="geometry" />
        </mxCell>
        <mxCell id="ZBmbEBPX8aPCuh-xm3aD-34" value="No" style="edgeLabel;html=1;align=center;verticalAlign=middle;resizable=0;points=[];" vertex="1" connectable="0" parent="ZBmbEBPX8aPCuh-xm3aD-33">
          <mxGeometry x="-0.0328" y="-2" relative="1" as="geometry">
            <mxPoint as="offset" />
          </mxGeometry>
        </mxCell>
        <mxCell id="ZBmbEBPX8aPCuh-xm3aD-27" value="Is that match the requirements" style="rhombus;whiteSpace=wrap;html=1;" vertex="1" parent="WIyWlLk6GJQsqaUBKTNV-1">
          <mxGeometry x="22.5" y="930" width="125" height="120" as="geometry" />
        </mxCell>
        <mxCell id="ZBmbEBPX8aPCuh-xm3aD-48" style="edgeStyle=orthogonalEdgeStyle;rounded=0;orthogonalLoop=1;jettySize=auto;html=1;exitX=0.5;exitY=1;exitDx=0;exitDy=0;entryX=0.5;entryY=0;entryDx=0;entryDy=0;" edge="1" parent="WIyWlLk6GJQsqaUBKTNV-1" source="ZBmbEBPX8aPCuh-xm3aD-39" target="ZBmbEBPX8aPCuh-xm3aD-47">
          <mxGeometry relative="1" as="geometry" />
        </mxCell>
        <mxCell id="ZBmbEBPX8aPCuh-xm3aD-39" value="" style="rounded=0;whiteSpace=wrap;html=1;fillColor=#000000;" vertex="1" parent="WIyWlLk6GJQsqaUBKTNV-1">
          <mxGeometry x="-20" y="1080" width="600" height="20" as="geometry" />
        </mxCell>
        <mxCell id="ZBmbEBPX8aPCuh-xm3aD-41" style="edgeStyle=orthogonalEdgeStyle;rounded=0;orthogonalLoop=1;jettySize=auto;html=1;exitX=0.5;exitY=1;exitDx=0;exitDy=0;entryX=0.175;entryY=0;entryDx=0;entryDy=0;entryPerimeter=0;" edge="1" parent="WIyWlLk6GJQsqaUBKTNV-1" source="ZBmbEBPX8aPCuh-xm3aD-27" target="ZBmbEBPX8aPCuh-xm3aD-39">
          <mxGeometry relative="1" as="geometry" />
        </mxCell>
        <mxCell id="ZBmbEBPX8aPCuh-xm3aD-45" style="edgeStyle=orthogonalEdgeStyle;rounded=0;orthogonalLoop=1;jettySize=auto;html=1;exitX=0.5;exitY=1;exitDx=0;exitDy=0;entryX=0.75;entryY=0;entryDx=0;entryDy=0;" edge="1" parent="WIyWlLk6GJQsqaUBKTNV-1" source="ZBmbEBPX8aPCuh-xm3aD-43" target="ZBmbEBPX8aPCuh-xm3aD-39">
          <mxGeometry relative="1" as="geometry" />
        </mxCell>
        <mxCell id="ZBmbEBPX8aPCuh-xm3aD-43" value="Enter password" style="rounded=1;whiteSpace=wrap;html=1;" vertex="1" parent="WIyWlLk6GJQsqaUBKTNV-1">
          <mxGeometry x="370" y="710" width="120" height="60" as="geometry" />
        </mxCell>
        <mxCell id="ZBmbEBPX8aPCuh-xm3aD-53" style="edgeStyle=orthogonalEdgeStyle;rounded=0;orthogonalLoop=1;jettySize=auto;html=1;exitX=0.5;exitY=1;exitDx=0;exitDy=0;entryX=0.5;entryY=0;entryDx=0;entryDy=0;" edge="1" parent="WIyWlLk6GJQsqaUBKTNV-1" source="ZBmbEBPX8aPCuh-xm3aD-47" target="ZBmbEBPX8aPCuh-xm3aD-50">
          <mxGeometry relative="1" as="geometry" />
        </mxCell>
        <mxCell id="ZBmbEBPX8aPCuh-xm3aD-47" value="Close event" style="rounded=1;whiteSpace=wrap;html=1;fillColor=#FF3333;" vertex="1" parent="WIyWlLk6GJQsqaUBKTNV-1">
          <mxGeometry x="220" y="1140" width="120" height="60" as="geometry" />
        </mxCell>
        <mxCell id="ZBmbEBPX8aPCuh-xm3aD-50" value="" style="ellipse;whiteSpace=wrap;html=1;aspect=fixed;" vertex="1" parent="WIyWlLk6GJQsqaUBKTNV-1">
          <mxGeometry x="260" y="1230" width="40" height="40" as="geometry" />
        </mxCell>
        <mxCell id="ZBmbEBPX8aPCuh-xm3aD-52" value="" style="ellipse;whiteSpace=wrap;html=1;aspect=fixed;fillColor=#000000;" vertex="1" parent="WIyWlLk6GJQsqaUBKTNV-1">
          <mxGeometry x="265" y="1235" width="30" height="30" as="geometry" />
        </mxCell>
      </root>
    </mxGraphModel>
  </diagram>
</mxfile>
